# xmcd
#
# Track frame offsets: 
#        150
#        12101
#        23410
#        34031
#        45162
#        55632
#        67811
#        79322
#        86182
#        96650
#        105330
#        113880
#        124129
#        132419
#        139743
#        150678
#        164113
#        175056
#        186102
#        204403
#        220682
#        231911
#        238972
#        245843
#        253808
#        259347
#        262079
#        265918
#        267978
#
# Disc length: 3597 seconds
#
# Revision: 1
# Processed by: cddbd v1.5.2PL0 Copyright (c) Steve Scherf et al.
# Submitted via: ExactAudioCopyFreeDBPlugin 1.0
#
DISCID=a40e0b1d
DTITLE=Waylon Jennings - The Journey - Destiny's Child - Vol. 2
DYEAR=1999
DGENRE=Country
TTITLE0=Crying
TTITLE1=Sally Was A Good Ole Girl
TTITLE2=Burning Memories
TTITLE3=Big Mamou
TTITLE4=Money (Gerald W. Gropp- Vocal)
TTITLE5=Don't Think Twice, It's Alright
TTITLE6=Dream Baby
TTITLE7=It's So Easy
TTITLE8=Lorena (Paul E. Foster- Vocal)
TTITLE9=Love's Gonna Live Here
TTITLE10=Abilene (Waylon, Paul and Gerry)
TTITLE11=White Lightnin'
TTITLE12=Step Aside
TTITLE13=Memories
TTITLE14=Mental Revenge
TTITLE15=Don't Think Twice, It's Alright
TTITLE16=The Twelfth Of Never
TTITLE17=Kisses Sweeter Than Wine
TTITLE18=I Don't Believe You
TTITLE19=The Real House Of The Rising Sun
TTITLE20=Living Proof (& Jessi Colter)
TTITLE21=Charlie Lay Down The Gun
TTITLE22=Wave Goodbye To Me
TTITLE23=Words Come Easy
TTITLE24=Red Velvet
TTITLE25=Sunbeam Bread Jingle
TTITLE26=Stop The World And Have A Coke
TTITLE27=To Bum Again (A Pause For A Coke)
TTITLE28=Roberts Bicycle Jingle (& Ray Corbin)
EXTD=
EXTT0=
EXTT1=
EXTT2=
EXTT3=
EXTT4=
EXTT5=
EXTT6=
EXTT7=
EXTT8=
EXTT9=
EXTT10=
EXTT11=
EXTT12=
EXTT13=
EXTT14=
EXTT15=
EXTT16=
EXTT17=
EXTT18=
EXTT19=
EXTT20=
EXTT21=
EXTT22=
EXTT23=
EXTT24=
EXTT25=
EXTT26=
EXTT27=
EXTT28=
PLAYORDER=
